<svg version="1.2" xmlns="http://www.w3.org/2000/svg" viewBox="0 0 614 701" width="614" height="701">
	<title>welcomingBlue-svg</title>
	<style>
		.s0 { fill: #f2f2f2 } 
		.s1 { fill: #e6e6e6 } 
		.s2 { fill: #3f3d56 } 
		.s3 { fill: #2f2e41 } 
		.s4 { fill: #ffb6b6 } 
		.s5 { fill: #00c895 } 
		.s6 { fill: #ff6584 } 
		.s7 { fill: #ffffff } 
	</style>
	<path id="Layer" class="s0" d="m300.3 643.8q1.4 1.1 2.8 2.2q1.3 1.1 2.6 2.2q1.2 1.2 2.4 2.5q1.2 1.2 2.4 2.6c2.6 3.2 4.8 6.6 6.7 10.3c1.9 3.7 3.3 7.6 4.4 11.5c1 4 1.6 8.1 1.8 12.2c0.1 4.2-0.2 8.3-0.9 12.3l-10.6-6.5q-3.8-0.4-7.5-1.7q-3.6-1.3-6.8-3.3q-3.3-2.1-6-4.8q-2.7-2.7-4.8-5.9c-4.6-7.5-6.3-16.7-8.8-25.3c-2.7-9 6.9-17 15.3-12.6q0.1 0.1 0.3 0.1l0.7 17.6c0 0 3.4-6.6 6-13.4z" />
	<path id="Layer" class="s1" d="m199.1 478.8c-20.5-21.1-50.2-33.2-81.5-33.2h-1.2q-7.7 0-15.3-1q-7.6-1-15.1-3q-7.4-2-14.5-5q-7.1-3-13.7-6.8l-1.9-1.1l1.5-1.6q3-3.1 5.8-6.4q2.8-3.4 5.3-6.9q2.5-3.6 4.7-7.3q2.3-3.8 4.2-7.7q-2.8 2.6-6 4.5q-3.3 1.9-6.8 3.1q-3.6 1.1-7.4 1.5q-3.7 0.4-7.5-0.1q-3.9-0.5-7.7-1.8q-3.7-1.4-7-3.5q-3.4-2.2-6.2-5q-2.8-2.8-4.8-6.2c-11-17.8-24-42.9-24-62.1c0-8.1 0.9-16.1 2.5-24.1c1.7-7.9 4.2-15.6 7.5-23c3.2-7.4 7.3-14.4 12-20.9c4.7-6.6 10.1-12.7 16.1-18.1c3.7-3.4 7.2-7.2 10.1-11.3c3-4.1 5.6-8.6 7.6-13.2c2.1-4.7 3.7-9.5 4.7-14.5c1.1-5 1.6-10.1 1.6-15.2v-1.4q0-5.1 0.3-10.1q0.3-5 0.9-10q0.6-5 1.5-10q0.9-4.9 2.1-9.8l0.4-1.3h1.3q3.3 0.1 6.6 0.1q3.3-0.1 6.5-0.4q3.3-0.3 6.5-0.7q3.3-0.5 6.5-1.1q-3-0.4-6-1q-3-0.6-5.9-1.3q-2.9-0.8-5.8-1.8q-2.9-1-5.7-2.2l-1.4-0.5l0.5-1.5c34.1-21.2 111-10.2 155.7-112.4c36.2-82.9 164.1 73.5 164.1 164c0 9.2-9.2 21.4-2.3 27.5c73.9 65.9 22.9 108.3 6.8 150.9c-3.8 10.1 4.5 21.2 4.5 32.1q0 2.8-0.2 5.7l-0.1 3l-2.5-1.7q-1.8-1.2-3.6-2.4q-1.7-1.3-3.4-2.7q-1.7-1.4-3.3-2.9q-1.6-1.5-3.2-3c2.2 4.8 3.7 9.9 4.7 15.1c1 5.2 1.4 10.5 1.2 15.8c-0.2 5.3-1 10.6-2.4 15.7c-1.3 5.1-3.3 10.1-5.7 14.8c-7.8 14.6-15.3 25.1-22.3 31.1c-11.2 9.6-24 16.9-37.9 21.7c-13.9 4.7-28.6 6.8-43.3 6.1c-14.7-0.7-29.1-4.2-42.4-10.3c-13.4-6-25.5-14.6-35.7-25.2z" />
	<path id="Layer" class="s2" d="m321.9 698.6q-0.4-0.2-0.7-0.5q-0.3-0.4-0.4-0.8q-0.1-0.5-0.1-0.9c0.1-0.6 8.8-63 1-146c-7.2-76.6-30.2-186.8-99.1-277.3c-0.4-0.4-0.5-1-0.4-1.5c0-0.6 0.3-1.1 0.8-1.4c0.4-0.3 1-0.5 1.5-0.4c0.6 0.1 1.1 0.4 1.4 0.8c69.5 91.2 92.7 202.3 100 279.4c7.8 83.5-0.9 146.4-1 147q-0.1 0.4-0.3 0.7q-0.1 0.3-0.4 0.6q-0.3 0.2-0.7 0.3q-0.3 0.2-0.7 0.2q-0.4 0-0.9-0.2z" />
	<path id="Layer" class="s2" d="m265.8 399.3q-0.2-0.1-0.4-0.1q-0.1-0.1-0.3-0.1q-0.1-0.1-0.2-0.2c-0.3-0.2-25.2-18.2-62.7-31.9c-34.5-12.6-87-24.1-140.9-7c-0.5 0.2-1.1 0.2-1.6-0.1c-0.5-0.2-0.9-0.7-1-1.2c-0.2-0.5-0.2-1.1 0.1-1.6c0.3-0.5 0.7-0.9 1.2-1c55-17.6 108.5-5.9 143.6 7c38 13.9 63.5 32.2 63.7 32.4c0.4 0.3 0.6 0.6 0.8 1c0.1 0.5 0.1 0.9 0 1.3c-0.2 0.5-0.4 0.8-0.8 1.1c-0.3 0.2-0.8 0.4-1.2 0.4q-0.2 0-0.3 0z" />
	<path id="Layer" class="s2" d="m361.8 161q0 0.1-0.1 0.3q0 0.1-0.1 0.3q-0.1 0.1-0.2 0.3c-0.2 0.2-19.9 23.8-36.3 60.2c-15.1 33.5-30.3 85-17.1 140c0.1 0.5 0 1.1-0.2 1.6c-0.3 0.4-0.8 0.8-1.3 0.9c-0.6 0.1-1.1 0.1-1.6-0.2c-0.5-0.3-0.8-0.8-1-1.3c-13.5-56.2 2-108.6 17.4-142.8c16.6-36.9 36.7-60.9 36.9-61.1c0.3-0.4 0.7-0.6 1.1-0.7c0.4-0.1 0.9-0.1 1.3 0.1c0.4 0.1 0.8 0.4 1 0.8c0.2 0.4 0.3 0.8 0.3 1.3q0 0.1-0.1 0.3z" />
	<path id="Layer" class="s3" d="m385.1 242.6c14.3 1.3 26 11.6 26 26c0 3.4-0.7 6.8-2 9.9c-1.3 3.2-3.2 6.1-5.7 8.5c-2.4 2.4-5.2 4.3-8.4 5.6c-3.1 1.3-6.5 2-9.9 2c-14.4 0-24.3-11.8-26-26c-2.3-18.3 10.8-27.4 26-26z" />
	<path id="Layer" class="s4" d="m397.1 687.3v-38.2h14.6l-4.7 38.2h-9.9z" />
	<path id="Layer" class="s3" d="m396.8 685.4h2.6l10.4-4.2l5.6 4.2c1.5 0 3.1 0.3 4.5 0.9c1.4 0.6 2.7 1.5 3.8 2.6c1.1 1.1 2 2.4 2.6 3.8c0.6 1.5 0.9 3 0.9 4.6v0.4h-30.4z" />
	<path id="Layer" class="s4" d="m358.1 687.3v-38.2h14.6l-4.7 38.2h-9.9z" />
	<path id="Layer" class="s3" d="m357.8 685.4h2.6l10.4-4.2l5.6 4.2c1.5 0 3.1 0.3 4.5 0.9c1.4 0.6 2.7 1.5 3.8 2.6c1.1 1.1 2 2.4 2.6 3.8c0.6 1.5 0.9 3 0.9 4.6v0.4h-30.4z" />
	<path id="Layer" class="s3" d="m431.2 448.1l7 24l-8.3 101.7c0 0 4.3 6.3 1.3 6.3c-3 0-6.9 1.4-4.4 5.2c2.4 3.8-5.9 17.5-5.9 17.5l-11.7 72.3l-15-0.2c0 0-7.5-4.2-3.3-8.5c4.3-4.3 7.3-4.3 3.3-8.3c-4-4-4-2.8-4-5.9c0-3.1-4-41 5.5-55.5l-2.9-59.3l-6.7 58.1l-13.9 77.6l-14.4-0.1c0 0-6.6-6.4-6.6-11.1c0-4.8 4.1-5.2 1-8c-3-2.8-3-45.8 6-69.8c0 0 5.1-13.3 0-17.9c-5.1-4.6 0-9.8 0-9.8c0 0 8-3 0-11.4c-8.1-8.4-0.1-67.9-0.1-67.9c0 0-8.8-24.1 0.1-33.5c9-9.5 73 4.5 73 4.5z" />
	<path id="Layer" class="s4" d="m306.5 489.5l12.5-30.2l9.8 5.5l-5.9 30.7c1.2 3.9 0.1 8.3-2.9 11.1c-3.1 2.9-7.4 3.8-11.3 2.3c-3.9-1.4-6.7-4.9-7.1-9c-0.5-4.1 1.4-8.2 4.9-10.4z" />
	<path id="Layer" class="s4" d="m516.1 250.8l-19 26.6l-8.4-7.6l12.8-28.5c-0.3-4.2 1.8-8.1 5.4-10.2c3.5-2.1 8-2 11.5 0.3c3.4 2.2 5.3 6.3 4.8 10.4c-0.4 4.1-3.2 7.6-7.1 9z" />
	<path id="Layer" class="s5" d="m433.1 450.6c12.3 19.1-49.7 43.4-73.4 33.6c-4.2-1.7-18.5-7.3-8.7-15.1c9.8-7.8-1.2-8.9-1.4-14c-0.2-3.4 2.4-10.9-0.3-10.5c-2.8 0.3-6-4.4 0-6.4c6-2.1 0.1-3.9 0.1-5.8c0.6-21 16.7-54.3 16.7-54.3l-29 74c0 0 0.2 12.8-3.5 8.9c-3.7-3.9-3.4 8.8-3.4 8.8c0 0-5.5 3.8-2.3 6c3.1 2.1-3.4 8.7-3.4 8.7l-15.3-1.1c0 0 0.2-11.4 2.8-13.9c2.6-2.5 1.3-6.5 1.3-6.5c0 0 6.8-6 2.3-10.9c-5.9-6.3 15.5-112.5 22.9-111.5c0.5-2.5 1.4-5 2.6-7.3c1.1-2.2 2.6-4.4 4.4-6.2c1.8-1.9 3.8-3.6 6-4.9c2.2-1.3 4.6-2.4 7.1-3l16.5-4.6l2.9-11.6h23.3l4.1 7.6l17.7 8c3.3-4.7 5.8-9.7 19.4-11.3c0 0 36.8-33.4 35-36c-1.8-2.7 3.9-8.8 3.9-8.8c0 0 4.9-1.6 2.2-2.4c-2.8-0.9 2.4-2.8 2.4-2.8c0 0 4.8-1.3 2.5-3c-2.2-1.6 7.6-2.7 7.6-2.7l12.8 10.4l-2.6 4.4c0 0 1.6 5.9-0.5 3.7c-2-2.1-2.4 4.2-2.4 4.2c0 0-1.1 6.9-7.3 9c-6.2 2.1-10.9 21.8-10.9 21.8c-14.7 19.1-32 34-52.5 43.8c8 9.2 0.4 101.7 0.4 101.7z" />
	<path id="Layer" class="s4" d="m387.9 296.1c-12.7 0-23-10.3-23-23c0-12.8 10.3-23.1 23-23.1c12.8 0 23.1 10.3 23.1 23.1c0 12.7-10.3 23-23.1 23z" />
	<path id="Layer" class="s3" d="m365.9 252.5c1.7-3.6 4-7.1 7.4-8.8c2.8-1.5 6.1-1.7 9.2-1.8q6.3-0.4 12.6-0.7c1.9-0.1 3.9-0.2 5.6 0.8q0.5 0.4 0.9 0.8q0.5 0.5 0.9 1q0.4 0.5 0.7 1q0.3 0.6 0.6 1.2q-0.6 0.4-1.1 0.8q-0.5 0.5-1 1q-0.5 0.5-0.9 1q-0.5 0.5-0.9 1q3.1 0.5 6.1 1c5.7 2.5 8 6.1 5.4 11.3c-0.9 1.8 1.7 3.7 1.7 5.7c0 1.9-1.1 4.1-3 4.6c-2.4 0.7-4.7-1.4-5.9-3.5c-1.3-2.1-2.1-4.7-4.1-6.1c-3.2-2.3-7.7-0.9-11.3 0.6c-3.7 1.5-8.1 2.9-11.3 0.6l0.7-0.6c-4.8 2.1-6 1.2-11.1 2.2c-7.1 1.3 0 22 1 22c1 0-3.3-7-4-12c-1.3-8.7-1.9-15.1 1.8-23.1z" />
	<path id="Layer" class="s1" d="m186.1 596.5c-0.4 2.8-4.1 4.7-8.2 4.1c-4.1-0.6-7.1-3.4-6.7-6.3c0.4-2.9 4.1-4.7 8.2-4.1c4.2 0.6 7.2 3.4 6.7 6.3z" />
	<path id="Layer" class="s2" d="m235.3 591.7c-0.4 2.8-4.1 4.7-8.2 4.1c-4.2-0.6-7.2-3.4-6.7-6.3c0.4-2.9 4.1-4.7 8.2-4.1c4.1 0.6 7.1 3.4 6.7 6.3z" />
	<path id="Layer" class="s6" d="m172.7 556.7c-0.4 2.8-4.1 4.7-8.3 4.1c-4.1-0.6-7.1-3.4-6.7-6.3c0.4-2.9 4.1-4.7 8.3-4.1c4.1 0.6 7.1 3.4 6.7 6.3z" />
	<path id="Layer" class="s1" d="m151.3 540.3c0 2.7-1.5 4.8-3.3 4.8c-1.9 0-3.4-2.2-3.3-4.8c0-2.6 1.5-4.8 3.3-4.8c1.9 0.1 3.3 2.2 3.3 4.8z" />
	<path id="Layer" class="s2" d="m144.1 510c-0.1 2.6-1.6 4.7-3.4 4.7c-1.8 0-3.3-2.1-3.3-4.8c0-2.6 1.5-4.7 3.4-4.7c1.8 0 3.3 2.1 3.3 4.8z" />
	<path id="Layer" class="s1" d="m200.4 563.4c0 2.7-1.5 4.8-3.3 4.8c-1.9 0-3.4-2.2-3.3-4.8c0-2.7 1.5-4.8 3.3-4.8c1.9 0 3.3 2.2 3.3 4.8z" />
	<path id="Layer" class="s6" d="m176.6 575.3c0 2.6-1.5 4.8-3.3 4.7c-1.8 0-3.3-2.1-3.3-4.8c0-2.6 1.5-4.7 3.4-4.7c1.8 0 3.3 2.2 3.2 4.8z" />
	<path id="Layer" class="s2" d="m209.7 597.2c0 2.7-1.5 4.8-3.3 4.8c-1.9 0-3.3-2.2-3.3-4.8c0-2.7 1.5-4.8 3.3-4.8c1.9 0 3.3 2.2 3.3 4.8z" />
	<path id="Layer" class="s1" d="m564.1 442.5c-0.4 2.8-4.1 4.7-8.2 4.1c-4.1-0.6-7.1-3.4-6.7-6.3c0.4-2.9 4.1-4.7 8.2-4.1c4.2 0.6 7.2 3.4 6.7 6.3z" />
	<path id="Layer" class="s2" d="m613.3 437.7c-0.4 2.8-4.1 4.7-8.2 4.1c-4.2-0.6-7.2-3.4-6.7-6.3c0.4-2.9 4.1-4.7 8.2-4.1c4.1 0.6 7.1 3.4 6.7 6.3z" />
	<path id="Layer" class="s6" d="m550.7 402.7c-0.4 2.8-4.1 4.7-8.3 4.1c-4.1-0.6-7.1-3.4-6.7-6.3c0.4-2.9 4.1-4.7 8.3-4.1c4.1 0.6 7.1 3.4 6.7 6.3z" />
	<path id="Layer" class="s1" d="m529.3 386.3c0 2.7-1.5 4.8-3.3 4.8c-1.9 0-3.4-2.2-3.3-4.8c0-2.6 1.5-4.8 3.3-4.8c1.9 0.1 3.3 2.2 3.3 4.8z" />
	<path id="Layer" class="s2" d="m522.1 356c-0.1 2.6-1.6 4.7-3.4 4.7c-1.8 0-3.3-2.1-3.3-4.8c0-2.6 1.5-4.7 3.4-4.7c1.8 0 3.3 2.1 3.3 4.8z" />
	<path id="Layer" class="s1" d="m578.4 409.4c0 2.7-1.5 4.8-3.3 4.8c-1.9 0-3.4-2.2-3.3-4.8c0-2.7 1.5-4.8 3.3-4.8c1.9 0 3.3 2.2 3.3 4.8z" />
	<path id="Layer" class="s6" d="m554.6 421.3c0 2.6-1.5 4.8-3.3 4.7c-1.8 0-3.3-2.1-3.3-4.8c0-2.6 1.5-4.7 3.4-4.7c1.8 0 3.3 2.2 3.2 4.8z" />
	<path id="Layer" class="s2" d="m587.7 443.2c0 2.7-1.5 4.8-3.3 4.8c-1.9 0-3.3-2.2-3.3-4.8c0-2.7 1.5-4.8 3.3-4.8c1.9 0 3.3 2.2 3.3 4.8z" />
	<path id="Layer" class="s7" d="m381.1 157.5c-0.4 2.8-4.1 4.7-8.2 4.1c-4.1-0.6-7.1-3.4-6.7-6.3c0.4-2.9 4.1-4.7 8.2-4.1c4.2 0.6 7.2 3.4 6.7 6.3z" />
	<path id="Layer" class="s2" d="m430.3 152.7c-0.4 2.8-4.1 4.7-8.2 4.1c-4.2-0.6-7.2-3.4-6.7-6.3c0.4-2.9 4.1-4.7 8.2-4.1c4.1 0.6 7.1 3.4 6.7 6.3z" />
	<path id="Layer" class="s6" d="m367.7 117.7c-0.4 2.8-4.1 4.7-8.3 4.1c-4.1-0.6-7.1-3.4-6.7-6.3c0.4-2.9 4.1-4.7 8.3-4.1c4.1 0.6 7.1 3.4 6.7 6.3z" />
	<path id="Layer" class="s1" d="m346.3 101.3c0 2.7-1.5 4.8-3.3 4.8c-1.9 0-3.4-2.2-3.3-4.8c0-2.6 1.5-4.8 3.3-4.8c1.9 0.1 3.3 2.2 3.3 4.8z" />
	<path id="Layer" class="s2" d="m339.1 71c-0.1 2.6-1.6 4.7-3.4 4.7c-1.8 0-3.3-2.1-3.3-4.8c0-2.6 1.5-4.7 3.4-4.7c1.8 0 3.3 2.1 3.3 4.8z" />
	<path id="Layer" class="s1" d="m395.4 124.4c0 2.7-1.5 4.8-3.3 4.8c-1.9 0-3.4-2.2-3.3-4.8c0-2.7 1.5-4.8 3.3-4.8c1.9 0 3.3 2.2 3.3 4.8z" />
	<path id="Layer" class="s6" d="m371.6 136.3c0 2.6-1.5 4.8-3.3 4.7c-1.8 0-3.3-2.1-3.3-4.8c0-2.6 1.5-4.7 3.4-4.7c1.8 0 3.3 2.2 3.2 4.8z" />
	<path id="Layer" class="s2" d="m404.7 158.2c0 2.7-1.5 4.8-3.3 4.8c-1.9 0-3.3-2.2-3.3-4.8c0-2.7 1.5-4.8 3.3-4.8c1.9 0 3.3 2.2 3.3 4.8z" />
</svg>